# xmcd CD database file
#
# Track frame offsets:
#	150
#	9510
#	24705
#	42460
#	55805
#	69085
#	78122
#	91210
#	104355
#	112530
#	126382
#	140370
#	148310
#	159120
#	171355
#	181855
#
# Disc length: 2689 seconds
#
# Revision: 3
# Processed by: cddbd v1.5.1PL0 Copyright (c) Steve Scherf et al.
# Submitted via: CDex 1.51
#
DISCID=c80a7f10
DTITLE=Tony Anderson Sound Orchestra - Country - Movie Themes
DYEAR=1900
DGENRE=Country
TTITLE0=Die glorreichen Sieben
TTITLE1=The Man With The Harmonica
TTITLE2=Once Upon A Time In The West
TTITLE3=High Noon
TTITLE4=Rio Bravo
TTITLE5=How The West Was Won
TTITLE6=The Good, The Bad And The Ugly
TTITLE7=Hängt ihn höher
TTITLE8=Für eine Handvoll Dollar
TTITLE9=Mein Name ist Nobody
TTITLE10=Johnny Guitar
TTITLE11=Alamo
TTITLE12=The Return Of The Seven
TTITLE13=For A Few Dollars More
TTITLE14=The Comancheros
TTITLE15=Wand´rin´ Star
EXTD=
EXTT0=
EXTT1=
EXTT2=
EXTT3=
EXTT4=
EXTT5=
EXTT6=
EXTT7=
EXTT8=
EXTT9=
EXTT10=
EXTT11=
EXTT12=
EXTT13=
EXTT14=
EXTT15=
PLAYORDER=
